<?xml version="1.0" encoding="utf-8"?>
<!-- Generator: Adobe Illustrator 22.0.1, SVG Export Plug-In . SVG Version: 6.00 Build 0)  -->
<svg version="1.1" id="Layer_1" xmlns="http://www.w3.org/2000/svg" xmlns:xlink="http://www.w3.org/1999/xlink" x="0px" y="0px"
	 viewBox="0 0 172.5 47.8" style="enable-background:new 0 0 172.5 47.8;" xml:space="preserve">
<style type="text/css">
	.st0{fill:#C5D0E7;}
	.st1{fill:#3D62AC;}
	.st2{fill:#3C61AD;}
	.st3{fill:#ED1C5C;}
</style>
<g>
	<g>
		<g>
			<path class="st0" d="M171.1,1.1v36.8H85.5V1.1H171.1 M172.1,0H84.4v39.1h87.8V0L172.1,0z"/>
		</g>
	</g>
	<g>
		<path class="st1" d="M105.7,39.1H0.1V0h105.6L105.7,39.1L105.7,39.1z M1.3,37.9h103.3V1.1H1.3V37.9z"/>
	</g>
	<g>
		<path class="st2" d="M108.7,11.9H95.8V28h12.8c2.7,0,4.5-0.6,5.5-1.8c1-1.1,1.5-3.2,1.5-6.3c0-3.2-0.5-5.3-1.4-6.4
			C113.2,12.4,111.4,11.9,108.7,11.9z M113,19.2v1.6c0,2-0.3,3.4-1,4c-0.7,0.6-1.7,0.9-3.1,0.9H98.4V14.1h10.8c1.3,0,2.3,0.3,2.8,1
			C112.5,15.6,113,16.6,113,19.2z"/>
		<path class="st2" d="M130.2,17L130.2,17c-1-0.5-2.5-0.8-4.5-0.8h-2.9c-1.7,0-2.9,0.3-3.7,0.7c-0.8,0.5-1.2,1.3-1.2,2.4v0.8h2.4
			v-0.7c0-0.4,0.1-0.7,0.5-0.9c0.2-0.1,0.7-0.3,2.1-0.3h2.7c1.5,0,2.5,0.1,3.1,0.4c0.5,0.2,0.7,0.7,0.7,1.5v1.3
			c-0.3-0.3-0.6-0.5-0.9-0.5c-0.5-0.2-1.4-0.3-2.7-0.3h-2.9c-1.9,0-3.1,0.2-3.9,0.5c-0.6,0.3-1.3,0.9-1.3,2.5v0.7
			c0,1.2,0.3,2.1,0.9,2.7c0.6,0.6,1.6,0.9,3,0.9h4.4c1.5,0,2.4-0.1,2.9-0.3c0.3-0.1,0.5-0.3,0.7-0.5v0.5h2.4v-7.6
			C131.8,18.7,131.2,17.6,130.2,17z M119.8,24.3c0-0.4,0.1-0.9,0.5-1.1c0.4-0.2,1.1-0.3,2.3-0.3h2.9c1.5,0,2.5,0.1,3.1,0.3
			c0.5,0.2,0.7,0.5,0.7,1.1v0.5c0,0.5-0.3,0.9-0.8,1.1c-0.5,0.1-1.5,0.3-3.6,0.3h-2.5c-1.2,0-1.9-0.1-2.3-0.3
			c-0.3-0.2-0.4-0.6-0.4-1.1L119.8,24.3L119.8,24.3z"/>
		<path class="st2" d="M142.9,23.6c0,1.3-0.3,1.9-0.4,2.1c-0.1,0.1-0.7,0.4-2.1,0.4h-0.6c-0.9,0-1.6-0.1-1.9-0.5
			c-0.3-0.3-0.5-0.9-0.5-1.9v-5.1h7.4v-2.1h-7.3v-2.6h-2.4v2.6h-2.4v2.1h2.4v5.9c0,1.1,0.3,2,1,2.7c0.7,0.7,1.9,1,3.5,1h1
			c1.5,0,2.6-0.3,3.3-0.8c0.8-0.5,1.1-1.7,1.1-3.5v-1.5h-2.1V23.6z"/>
		<path class="st2" d="M158.9,17.1L158.9,17.1c-1-0.5-2.5-0.8-4.5-0.8h-2.9c-1.7,0-3,0.3-3.7,0.7c-0.8,0.5-1.2,1.3-1.2,2.3v0.9h2.5
			v-0.7c0-0.4,0.1-0.7,0.5-0.9c0.3-0.2,1-0.3,2.1-0.3h2.7c1.5,0,2.5,0.1,3.1,0.4c0.5,0.2,0.7,0.7,0.7,1.5v1.3
			c-0.3-0.3-0.6-0.5-0.9-0.5c-0.5-0.2-1.4-0.3-2.7-0.3h-3c-1.9,0-3.1,0.2-3.9,0.5c-0.9,0.3-1.3,1.2-1.3,2.5v0.7
			c0,1.2,0.3,2.1,0.9,2.7c0.6,0.6,1.6,0.9,2.9,0.9h4.5c1.5,0,2.4-0.1,2.9-0.3c0.3-0.1,0.5-0.3,0.7-0.5v0.5h2.4v-7.5
			C160.4,18.8,159.9,17.6,158.9,17.1z M158,24.3v0.5c0,0.5-0.3,0.9-0.8,1.1c-0.7,0.2-1.9,0.3-3.6,0.3h-2.5c-1.2,0-1.9-0.1-2.3-0.3
			c-0.3-0.2-0.4-0.6-0.4-1.1v-0.3c0-0.6,0.1-0.9,0.5-1.1c0.3-0.2,1.1-0.3,2.3-0.3h2.9c1.5,0,2.6,0.1,3.2,0.3
			C157.8,23.3,158,23.7,158,24.3z"/>
	</g>
	<g>
		<path class="st2" d="M32,13c-1-1.1-2.8-1.7-5.5-1.7H13.6v16.2h12.8c2.7,0,4.5-0.6,5.5-1.7c1-1.1,1.5-3.3,1.5-6.3
			C33.4,16.2,33,14.1,32,13L32,13z M30.7,18.6v1.6c0,2.1-0.3,3.4-1,4.1c-0.7,0.6-1.7,0.9-3.1,0.9H16.2V13.6H27
			c1.3,0,2.3,0.3,2.9,0.9C30.5,15.2,30.7,16.5,30.7,18.6z"/>
		<rect x="35.4" y="11.2" class="st2" width="2.4" height="2.6"/>
		<rect x="35.4" y="15.8" class="st2" width="2.4" height="11.5"/>
		<path class="st2" d="M52.1,16.5c-1-0.5-2.5-0.8-4.5-0.8h-2.9c-1.7,0-2.9,0.2-3.7,0.7c-0.8,0.5-1.1,1.3-1.1,2.4v0.8h2.4v-0.7
			c0-0.4,0.1-0.7,0.5-0.9c0.3-0.2,1-0.3,2.1-0.3h2.7c1.8,0,2.7,0.2,3.1,0.3c0.5,0.3,0.7,0.7,0.7,1.6v1.3c-0.3-0.3-0.6-0.4-0.9-0.5
			c-0.5-0.2-1.4-0.3-2.7-0.3h-3c-1.8,0-3.1,0.2-3.9,0.5c-0.9,0.4-1.3,1.3-1.3,2.5v0.7c0,1.2,0.3,2.1,0.9,2.7
			c0.5,0.6,1.5,0.9,2.9,0.9h4.5c1.5,0,2.4-0.1,2.9-0.3c0.3-0.1,0.5-0.3,0.8-0.5v0.5h2.5v-7.5C53.7,18.1,53.2,17,52.1,16.5z
			 M51.3,23.6v0.5c0,0.5-0.3,0.9-0.8,1c-0.6,0.2-1.7,0.3-3.5,0.3h-2.5c-1.5,0-2.1-0.1-2.3-0.3c-0.3-0.2-0.4-0.6-0.4-1.1v-0.3
			c0-0.7,0.3-1,0.5-1.1c0.2-0.1,0.8-0.3,2.3-0.3h2.9c1,0,2.5,0,3.1,0.3C51.1,22.7,51.3,23,51.3,23.6z"/>
		<rect x="56.2" y="11.1" class="st2" width="2.4" height="16.2"/>
		<path class="st2" d="M74.5,16.7c-1.1-0.7-2.7-1-4.7-1h-2.7c-2,0-3.5,0.3-4.6,1c-1.1,0.7-1.7,1.9-1.7,3.7v2.4c0,1.8,0.5,3,1.7,3.7
			c1.1,0.7,2.7,1,4.7,1h2.7c2,0,3.5-0.3,4.6-1c1.1-0.7,1.7-1.9,1.7-3.7v-2.4C76.2,18.6,75.6,17.4,74.5,16.7z M73.8,20.6v2.2
			c0,1.1-0.3,1.8-0.8,2.2c-0.6,0.3-1.5,0.5-2.6,0.5h-3.8c-1.1,0-2-0.2-2.5-0.5c-0.5-0.4-0.8-1.1-0.8-2.2v-2.2c0-1.1,0.3-1.8,0.8-2.2
			s1.5-0.5,2.5-0.5h3.8c1.1,0,2,0.2,2.6,0.5C73.5,18.7,73.8,19.5,73.8,20.6z"/>
		<path class="st2" d="M90.1,15.8v1.1c-0.3-0.3-0.5-0.6-0.9-0.8c-0.6-0.3-1.4-0.5-2.3-0.5H83c-1.5,0-2.7,0.3-3.7,0.9
			c-1.1,0.6-1.6,1.9-1.6,3.8v1.9c0,1.5,0.4,2.6,1.3,3.4s2.1,1.2,3.7,1.2h3.7c1.3,0,2.2-0.1,2.7-0.5c0.3-0.1,0.5-0.3,0.8-0.6v0.7
			c0,2.3-0.9,2.4-1.1,2.5c-0.8,0.1-2,0.3-3.8,0.3h-1.7c-1,0-1.7-0.1-2.2-0.3c-0.5-0.3-0.7-0.6-0.7-1.1v-0.6H78v0.7
			c0,1,0.4,1.8,1.1,2.5c0.7,0.7,1.9,1.1,3.5,1.1h4.1c1.5,0,2.7-0.3,3.9-0.9c1.1-0.6,1.7-1.7,1.7-3.3V15.8H90.1z M90,20.8v1.3
			c0,0.9-0.3,1.6-0.7,2c-0.5,0.5-1.4,0.7-2.6,0.7H83c-1.1,0-1.8-0.2-2.2-0.7c-0.4-0.4-0.7-1.3-0.7-2.4v-2c0-0.7,0.3-1.3,0.7-1.5
			c0.5-0.3,1.3-0.5,2.3-0.5h3.7c1.1,0,1.9,0.3,2.4,0.7C89.8,19,90,19.8,90,20.8z"/>
	</g>
	<polygon class="st3" points="8.2,38.9 0.1,47 0.1,39.1 8.2,30.8 	"/>
</g>
</svg>
