<?xml version="1.0" encoding="UTF-8"?> 
<svg width="129px" height="20px" viewBox="0 0 129 20" version="1.1" xmlns="http://www.w3.org/2000/svg" xmlns:xlink="http://www.w3.org/1999/xlink">
    <!-- Generator: sketchtool 53.2 (72643) - https://sketchapp.com -->
    <title>C5CD3A68-5530-4191-9664-07D91EE168D3</title>
    <desc>Created with sketchtool.</desc>
    <g id="esoh-website" stroke="none" stroke-width="1" fill="none" fill-rule="evenodd">
        <g id="Careers" transform="translate(-62.000000, -59.000000)" fill="#BB271B" fill-rule="nonzero">
            <g id="First-Fold" transform="translate(-111.000000, -31.000000)">
                <path d="M176.664062,92.4804688 L176.664062,107.216797 L179.359375,107.216797 L179.359375,109.404297 L173.382812,109.404297 L173.382812,90.2832031 L179.359375,90.2832031 L179.359375,92.4804688 L176.664062,92.4804688 Z M192.35026,100.556641 L184.69401,100.556641 C184.772136,101.344405 185.043943,101.967771 185.50944,102.426758 C185.974937,102.885744 186.575517,103.115234 187.311198,103.115234 C188.125004,103.115234 188.919267,102.711593 189.69401,101.904297 L192.233073,102.724609 C191.673174,103.564457 190.979822,104.194334 190.152995,104.614258 C189.326168,105.034182 188.34636,105.244141 187.213542,105.244141 C186.080724,105.244141 185.079757,105.030927 184.210612,104.604492 C183.341467,104.178058 182.667646,103.574223 182.189128,102.792969 C181.71061,102.011715 181.471354,101.093755 181.471354,100.039062 C181.471354,98.9973906 181.720375,98.0533896 182.218425,97.2070312 C182.716474,96.3606729 183.390295,95.6982446 184.239909,95.2197266 C185.089523,94.7412085 186.012365,94.5019531 187.008464,94.5019531 C188.089198,94.5019531 189.029944,94.7509741 189.830729,95.2490234 C190.631514,95.7470728 191.24837,96.4534459 191.681315,97.3681641 C192.11426,98.2828822 192.33724,99.3456971 192.35026,100.556641 Z M186.852214,96.6796875 C186.266273,96.6796875 185.7959,96.8489566 185.441081,97.1875 C185.086261,97.5260434 184.863282,98.0436163 184.772135,98.7402344 L189.049479,98.7402344 C188.958333,98.1282521 188.709312,97.6318378 188.302409,97.2509766 C187.895506,96.8701153 187.412112,96.6796875 186.852214,96.6796875 Z M194.335287,101.318359 L194.335287,98.4570312 L200.253255,98.4570312 L200.253255,101.318359 L194.335287,101.318359 Z M208.605469,95.0976562 L208.605469,94.7363281 L210.939453,94.7363281 L210.939453,97.7441406 L208.605469,97.7441406 C208.403645,97.0214808 207.654954,96.6601562 206.359375,96.6601562 C205.428381,96.6601562 204.962891,96.9205703 204.962891,97.4414062 C204.962891,97.669272 205.086587,97.8385411 205.333984,97.9492188 C205.581382,98.0598964 205.942706,98.1510413 206.417969,98.2226562 C207.752611,98.3919279 208.804033,98.6344385 209.572266,98.9501953 C210.340499,99.2659521 210.877603,99.6565732 211.183594,100.12207 C211.489585,100.587567 211.642578,101.15234 211.642578,101.816406 C211.642578,102.897141 211.273116,103.738604 210.53418,104.34082 C209.795244,104.943037 208.791022,105.244141 207.521484,105.244141 C206.284499,105.244141 205.444664,104.996747 205.001953,104.501953 L205.001953,105 L202.619141,105 L202.619141,101.464844 L205.001953,101.464844 C205.067058,101.953127 205.303058,102.337238 205.709961,102.617188 C206.116864,102.897137 206.619789,103.037109 207.21875,103.037109 C207.804691,103.037109 208.237629,102.970378 208.517578,102.836914 C208.797528,102.70345 208.9375,102.470705 208.9375,102.138672 C208.9375,101.910806 208.878907,101.733399 208.761719,101.606445 C208.644531,101.479492 208.418296,101.367188 208.083008,101.269531 C207.74772,101.171875 207.23503,101.061199 206.544922,100.9375 C205.008456,100.696613 203.903324,100.30762 203.229492,99.7705078 C202.555661,99.2333958 202.21875,98.5091191 202.21875,97.5976562 C202.21875,96.666662 202.568681,95.9342475 203.268555,95.4003906 C203.968428,94.8665338 204.89127,94.5996094 206.037109,94.5996094 C206.961593,94.5996094 207.817704,94.7656233 208.605469,95.0976562 Z M225.121745,99.9804688 C225.121745,100.983078 224.94271,101.883134 224.584636,102.680664 C224.226561,103.478194 223.710615,104.104815 223.036784,104.560547 C222.362952,105.016278 221.586593,105.244141 220.707682,105.244141 C219.626948,105.244141 218.627609,104.817713 217.709636,103.964844 L217.709636,107.255859 L219.740886,107.255859 L219.740886,109.619141 L212.709636,109.619141 L212.709636,107.255859 L214.447917,107.255859 L214.447917,97.1386719 L212.983073,97.1386719 L212.983073,94.7363281 L217.709636,94.7363281 L217.709636,96.015625 C218.614588,95.0716099 219.626948,94.5996094 220.746745,94.5996094 C221.651697,94.5996094 222.434567,94.8356096 223.095378,95.3076172 C223.756188,95.7796248 224.259113,96.422522 224.604167,97.2363281 C224.949221,98.0501343 225.121745,98.9648387 225.121745,99.9804688 Z M219.760417,102.65625 C220.404951,102.65625 220.899738,102.416995 221.244792,101.938477 C221.589846,101.459959 221.76237,100.781254 221.76237,99.9023438 C221.76237,99.0624958 221.58659,98.4082055 221.235026,97.9394531 C220.883462,97.4707008 220.37891,97.2363281 219.721354,97.2363281 C219.096351,97.2363281 218.596682,97.4804663 218.222331,97.96875 C217.84798,98.4570337 217.660807,99.1145792 217.660807,99.9414062 C217.660807,100.71615 217.85449,101.362302 218.241862,101.879883 C218.629234,102.397464 219.135414,102.65625 219.760417,102.65625 Z M235.651693,94.6191406 L235.651693,97.6953125 C234.753251,97.7539065 234.03874,97.8955067 233.508138,98.1201172 C232.977537,98.3447277 232.567384,98.730466 232.277669,99.2773438 C231.987954,99.8242215 231.843099,100.605464 231.843099,101.621094 L231.843099,102.636719 L233.884115,102.636719 L233.884115,105 L226.686849,105 L226.686849,102.636719 L228.571615,102.636719 L228.571615,97.1386719 L226.784505,97.1386719 L226.784505,94.7363281 L231.569662,94.7363281 L231.569662,97.34375 C231.810548,96.5559856 232.256507,95.9016953 232.907552,95.3808594 C233.558597,94.8600234 234.365881,94.5996094 235.329427,94.5996094 C235.472657,94.5996094 235.580078,94.6061197 235.651693,94.6191406 Z M248.173828,100.556641 L240.517578,100.556641 C240.595704,101.344405 240.867511,101.967771 241.333008,102.426758 C241.798505,102.885744 242.399085,103.115234 243.134766,103.115234 C243.948572,103.115234 244.742835,102.711593 245.517578,101.904297 L248.056641,102.724609 C247.496742,103.564457 246.80339,104.194334 245.976563,104.614258 C245.149736,105.034182 244.169928,105.244141 243.03711,105.244141 C241.904291,105.244141 240.903325,105.030927 240.03418,104.604492 C239.165035,104.178058 238.491214,103.574223 238.012696,102.792969 C237.534177,102.011715 237.294922,101.093755 237.294922,100.039062 C237.294922,98.9973906 237.543943,98.0533896 238.041992,97.2070312 C238.540042,96.3606729 239.213863,95.6982446 240.063477,95.2197266 C240.91309,94.7412085 241.835933,94.5019531 242.832031,94.5019531 C243.912766,94.5019531 244.853512,94.7509741 245.654297,95.2490234 C246.455082,95.7470728 247.071938,96.4534459 247.504883,97.3681641 C247.937828,98.2828822 248.160807,99.3456971 248.173828,100.556641 Z M242.675781,96.6796875 C242.089841,96.6796875 241.619468,96.8489566 241.264649,97.1875 C240.909829,97.5260434 240.68685,98.0436163 240.595703,98.7402344 L244.873047,98.7402344 C244.781901,98.1282521 244.53288,97.6318378 244.125977,97.2509766 C243.719074,96.8701153 243.23568,96.6796875 242.675781,96.6796875 Z M256.301433,95.0976562 L256.301433,94.7363281 L258.635417,94.7363281 L258.635417,97.7441406 L256.301433,97.7441406 C256.099609,97.0214808 255.350918,96.6601562 254.055339,96.6601562 C253.124345,96.6601562 252.658854,96.9205703 252.658854,97.4414062 C252.658854,97.669272 252.782551,97.8385411 253.029948,97.9492188 C253.277345,98.0598964 253.63867,98.1510413 254.113933,98.2226562 C255.448575,98.3919279 256.499996,98.6344385 257.268229,98.9501953 C258.036462,99.2659521 258.573566,99.6565732 258.879558,100.12207 C259.185549,100.587567 259.338542,101.15234 259.338542,101.816406 C259.338542,102.897141 258.969079,103.738604 258.230143,104.34082 C257.491207,104.943037 256.486986,105.244141 255.217448,105.244141 C253.980463,105.244141 253.140627,104.996747 252.697917,104.501953 L252.697917,105 L250.315104,105 L250.315104,101.464844 L252.697917,101.464844 C252.763021,101.953127 252.999022,102.337238 253.405925,102.617188 C253.812828,102.897137 254.315752,103.037109 254.914714,103.037109 C255.500654,103.037109 255.933593,102.970378 256.213542,102.836914 C256.493491,102.70345 256.633464,102.470705 256.633464,102.138672 C256.633464,101.910806 256.574871,101.733399 256.457683,101.606445 C256.340494,101.479492 256.11426,101.367188 255.778972,101.269531 C255.443683,101.171875 254.930993,101.061199 254.240886,100.9375 C252.70442,100.696613 251.599287,100.30762 250.925456,99.7705078 C250.251624,99.2333958 249.914714,98.5091191 249.914714,97.5976562 C249.914714,96.666662 250.264645,95.9342475 250.964518,95.4003906 C251.664392,94.8665338 252.587234,94.5996094 253.733073,94.5996094 C254.657557,94.5996094 255.513668,94.7656233 256.301433,95.0976562 Z M261.264974,101.318359 L261.264974,98.4570312 L267.182943,98.4570312 L267.182943,101.318359 L261.264974,101.318359 Z M280.154297,99.8632812 C280.154297,100.885422 279.913414,101.806637 279.431641,102.626953 C278.949868,103.44727 278.298833,104.088539 277.478516,104.550781 C276.658199,105.013023 275.756516,105.244141 274.773438,105.244141 C273.731766,105.244141 272.800786,105.013023 271.980469,104.550781 C271.160152,104.088539 270.52051,103.44727 270.061524,102.626953 C269.602537,101.806637 269.373047,100.885422 269.373047,99.8632812 C269.373047,98.8476512 269.609047,97.9329468 270.081055,97.1191406 C270.553063,96.3053345 271.20247,95.6656924 272.029297,95.2001953 C272.856124,94.7346982 273.770829,94.5019531 274.773438,94.5019531 C275.795578,94.5019531 276.716793,94.7346982 277.53711,95.2001953 C278.357426,95.6656924 278.998696,96.3053345 279.460938,97.1191406 C279.92318,97.9329468 280.154297,98.8476512 280.154297,99.8632812 Z M274.753907,102.695312 C275.391931,102.695312 275.8916,102.446292 276.25293,101.948242 C276.61426,101.450193 276.794922,100.735682 276.794922,99.8046875 C276.794922,98.9322873 276.61426,98.250328 276.25293,97.7587891 C275.8916,97.2672501 275.38542,97.0214844 274.734375,97.0214844 C274.07682,97.0214844 273.578778,97.263995 273.240235,97.7490234 C272.901691,98.2340519 272.732422,98.9648389 272.732422,99.9414062 C272.732422,100.768233 272.91634,101.433917 273.28418,101.938477 C273.65202,102.443036 274.141924,102.695312 274.753907,102.695312 Z M289.404948,94.5019531 C290.44662,94.5019531 291.22949,94.8177052 291.753581,95.4492188 C292.277672,96.0807323 292.539714,96.9986919 292.539714,98.203125 L292.539714,102.636719 L294.063151,102.636719 L294.063151,105 L289.258464,105 L289.258464,98.359375 C289.258464,97.9361958 289.178712,97.6334645 289.019206,97.4511719 C288.8597,97.2688793 288.594403,97.1777344 288.223308,97.1777344 C287.715493,97.1777344 287.142582,97.3860656 286.504558,97.8027344 L286.504558,102.636719 L287.940105,102.636719 L287.940105,105 L281.582683,105 L281.582683,102.636719 L283.242839,102.636719 L283.242839,92.6367188 L281.582683,92.6367188 L281.582683,90.2832031 L286.504558,90.2832031 L286.504558,95.5761719 C287.55925,94.8600225 288.526038,94.5019531 289.404948,94.5019531 Z M295.852865,109.404297 L295.852865,107.216797 L298.548177,107.216797 L298.548177,92.4804688 L295.852865,92.4804688 L295.852865,90.2832031 L301.829427,90.2832031 L301.829427,109.404297 L295.852865,109.404297 Z" id="[e-spres-oh]"></path>
            </g>
        </g>
    </g>
</svg>