<?xml version="1.0" encoding="utf-8"?>
<!-- Generator: Adobe Illustrator 16.0.0, SVG Export Plug-In . SVG Version: 6.00 Build 0)  -->
<!DOCTYPE svg PUBLIC "-//W3C//DTD SVG 1.0//EN" "http://www.w3.org/TR/2001/REC-SVG-20010904/DTD/svg10.dtd">
<svg version="1.0" id="Layer_1" xmlns="http://www.w3.org/2000/svg" xmlns:xlink="http://www.w3.org/1999/xlink" x="0px" y="0px"
	 width="1280px" height="800px" viewBox="0 0 1280 800" enable-background="new 0 0 1280 800" xml:space="preserve">
<path fill="#0095E0" d="M142.356,210.183c8.782,0,16.255-3.132,22.42-9.404c6.164-6.272,9.252-13.797,9.252-22.579
	c0-8.778-3.088-16.255-9.252-22.428c-6.165-6.16-13.638-9.249-22.42-9.249c-8.993,0-16.578,3.088-22.738,9.249
	c-6.168,6.173-9.249,13.65-9.249,22.428c0,8.782,3.132,16.307,9.404,22.579C126.046,207.051,133.571,210.183,142.356,210.183z
	 M172.301,518.859c-2.614-5.961-3.915-17.926-3.915-35.914V252.137h-13.801L68.028,287.26l4.389,11.292
	c8.363-3.136,15.473-4.708,21.326-4.708c5.438,0,9.728,1.309,12.86,3.922c3.132,2.622,5.434,7.266,6.899,13.957
	c1.883,9.201,2.824,29.37,2.824,60.523v110.7c0,17.775-1.412,29.797-4.237,36.07c-2.82,6.271-6.635,10.768-11.447,13.484
	c-4.808,2.723-14.22,4.078-28.225,4.078v11.283h139.555v-11.283c-13.589,0-22.941-1.459-28.064-4.393
	C178.781,529.262,174.915,524.816,172.301,518.859z M406.877,252.137c-25.304,0-49.974,21.534-74.018,64.605v-64.605h-13.17
	L232.82,287.26l3.14,11.292c8.155-3.136,15.473-4.708,21.953-4.708c5.434,0,9.979,1.469,13.638,4.393
	c3.654,2.933,6.168,7.577,7.533,13.957c1.357,6.38,2.031,26.293,2.031,59.737v111.335c0,16.732-0.519,26.859-1.564,30.418
	c-2.086,7.318-5.753,12.656-10.976,15.992c-7.11,4.598-17.987,6.902-32.614,6.902v11.283h147.077v-11.283
	c-12.963,0-22.891-1.883-29.789-5.648c-6.898-3.76-11.714-8.467-14.428-14.109c-3.97-8.154-5.961-20.172-5.961-36.068V343.083
	c10.039-19.646,19.759-33.758,29.171-42.333c4.389-4.185,8.466-6.276,12.225-6.276c4.394,0,11.132,3.603,20.233,10.82
	c9.093,7.21,17.292,10.821,24.614,10.821c7.529,0,14.004-2.829,19.447-8.466c5.435-5.65,8.151-12.549,8.151-20.704
	c0-9.197-3.763-17.292-11.287-24.303C427.884,255.64,418.368,252.137,406.877,252.137z M536.645,589.82
	c-8.778,0-16.255,3.137-22.419,9.404c-6.168,6.271-9.257,13.801-9.257,22.582c0,8.783,3.089,16.252,9.257,22.42
	c6.165,6.16,13.642,9.248,22.419,9.248c8.99,0,16.574-3.088,22.735-9.248c6.172-6.168,9.256-13.637,9.256-22.42
	c0-8.781-3.14-16.311-9.412-22.582C552.952,592.957,545.427,589.82,536.645,589.82z M585.254,506.16
	c-5.438,0-9.719-1.309-12.86-3.928c-3.132-2.609-5.434-7.26-6.898-13.947c-1.883-9.209-2.821-29.379-2.821-60.531V317.053
	c0-17.768,1.413-29.793,4.233-36.062c2.821-6.272,6.635-10.772,11.447-13.49c4.812-2.713,14.221-4.078,28.225-4.078v-11.288H467.029
	v11.288c13.594,0,22.942,1.464,28.065,4.397c5.127,2.929,8.989,7.365,11.603,13.326c2.618,5.957,3.922,17.919,3.922,35.906v230.808
	h13.793l86.558-35.119l-4.389-11.291C598.222,504.588,591.107,506.16,585.254,506.16z M860.352,514c-3.14,0-5.909-1.045-8.311-3.141
	c-2.402-2.082-4.13-6.217-5.18-12.385c-1.041-6.164-1.563-22.941-1.563-50.332v-97.53c0-27.806-1.88-46.204-5.646-55.197
	c-5.85-13.797-14.946-23.939-27.283-30.419c-16.311-8.575-37.21-12.86-62.722-12.86c-33.244,0-59.067,7.529-77.461,22.583
	c-18.397,15.054-27.598,31.564-27.598,49.543c0,9.412,2.458,16.83,7.369,22.272c4.915,5.438,11.243,8.147,18.972,8.147
	c7.948,0,14.376-2.605,19.287-7.836c4.912-5.223,7.374-12.652,7.374-22.264l-0.631-18.19c0-9.201,3.97-17.353,11.918-24.462
	c7.732-7.106,18.194-10.661,31.365-10.661c17.353,0,30.575,5.334,39.672,15.992c9.089,10.661,13.638,30.319,13.638,58.963v11.288
	c-49.344,17.979-84.627,33.24-105.845,45.784c-21.219,12.545-36.113,25.922-44.688,40.139c-6.268,10.246-9.408,22.375-9.408,36.385
	c0,22.156,6.432,40.035,19.287,53.625c12.859,13.59,29.214,20.379,49.084,20.379c12.752,0,24.777-2.617,36.065-7.844
	c7.521-3.551,26.025-16.717,55.504-39.508c0.207,17.141,3.339,29.273,9.412,36.381c6.061,7.102,14.216,10.66,24.462,10.66
	c21.318,0,43.689-15.68,67.11-47.041v-17.564c-12.544,12.545-21.015,20.182-25.407,22.895C866.624,513.27,863.691,514,860.352,514z
	 M793.553,486.09c-25.923,20.908-46.834,31.354-62.722,31.354c-11.715,0-22.057-4.963-31.046-14.891s-13.482-22.424-13.482-37.477
	c0-11.918,3.552-22.891,10.657-32.93c7.106-10.039,18.925-19.65,35.442-28.852c9.197-5.223,29.586-14.116,61.15-26.652V486.09z
	 M1183.592,532.186c-5.127-2.924-8.838-7.002-11.133-12.232c-2.932-6.477-4.393-18.812-4.393-37.008V360.332
	c0-25.918-2.306-45.162-6.895-57.706c-6.699-17.979-15.685-30.89-26.976-38.727c-11.288-7.84-24.773-11.762-40.458-11.762
	c-30.523,0-62.613,20.281-96.273,60.838v-60.838h-13.481L897.43,287.26l4.705,11.292c8.154-3.136,15.157-4.708,21.01-4.708
	c5.435,0,9.768,1.369,13.012,4.078c3.24,2.721,5.642,7.844,7.21,15.365c1.571,7.533,2.354,28.54,2.354,63.037v106.622
	c0,20.908-2.559,35.08-7.682,42.502c-5.127,7.42-15.006,11.131-29.633,11.131h-6.271v11.283h142.061v-11.283
	c-15.676,0-26.086-1.412-31.205-4.236c-5.123-2.816-9.145-7.262-12.073-13.326c-2.307-4.598-3.452-16.623-3.452-36.07V331.48
	c24.666-27.175,49.439-40.769,74.325-40.769c16.103,0,27.546,5.909,34.341,17.719c6.791,11.81,10.19,30.782,10.19,56.917v117.598
	c0,16.52-0.423,26.35-1.257,29.486c-2.087,7.947-5.801,13.949-11.132,18.027c-5.327,4.076-14.69,6.119-28.065,6.119h-5.957v11.283
	h142.062v-11.283C1198.171,536.578,1188.715,535.119,1183.592,532.186z"/>
</svg>
